# xmcd CD database file
#
# Track frame offsets:
#	150
#	17982
#	39895
#
# Disc length: 768 seconds
#
# Revision: 0
# Processed by: cddbd v1.5PL3 Copyright (c) Steve Scherf et al.
# Submitted via: CDex 1.51
#
DISCID=1902fe03
DTITLE=中瀬聡美 - 銀色Horizon
DYEAR=1996
DGENRE=JPop
TTITLE0=銀色Horizon
TTITLE1=オレンジ色の花
TTITLE2=銀色Horizon(off vocal version)
EXTD=YEAR: 1996
EXTT0=
EXTT1=
EXTT2=
PLAYORDER=
